<svg width="365" height="61" viewBox="0 0 365 61" fill="none" xmlns="http://www.w3.org/2000/svg">
<path d="M0.0838013 30.6305C0.0838013 25.6173 1.27165 21.5807 3.64735 18.5204C6.04319 15.4602 9.26447 13.9301 13.3112 13.9301C16.8949 13.9301 19.6833 15.1582 21.6765 17.6145L22.0389 14.5341H29.9512V46.1229C29.9512 48.9818 29.2969 51.4682 27.9882 53.5822C26.6997 55.6961 24.8777 57.3068 22.5221 58.4141C20.1665 59.5214 17.4083 60.0751 14.2474 60.0751C11.8516 60.0751 9.51614 59.5919 7.2411 58.6255C4.96607 57.6792 3.24469 56.4511 2.07697 54.9411L5.94252 49.626C8.11689 52.0621 10.7543 53.2802 13.8548 53.2802C16.1701 53.2802 17.972 52.656 19.2605 51.4078C20.549 50.1797 21.1933 48.4281 21.1933 46.1531V44.4015C19.18 46.6765 16.5325 47.814 13.2508 47.814C9.32487 47.814 6.14385 46.2839 3.70775 43.2237C1.29178 40.1433 0.0838013 36.0664 0.0838013 30.9929V30.6305ZM8.81148 31.2647C8.81148 34.2242 9.40541 36.5496 10.5933 38.2408C11.7811 39.9118 13.4119 40.7473 15.4856 40.7473C18.1432 40.7473 20.0457 39.7507 21.1933 37.7576V24.0168C20.0256 22.0236 18.1432 21.027 15.546 21.027C13.4521 21.027 11.8012 21.8827 10.5933 23.594C9.40541 25.3053 8.81148 27.8622 8.81148 31.2647Z" fill="black"/>
<path d="M52.5284 47.21C52.1257 46.4249 51.8338 45.4484 51.6526 44.2807C49.5386 46.6362 46.7905 47.814 43.4081 47.814C40.207 47.814 37.5494 46.8879 35.4354 45.0357C33.3416 43.1834 32.2947 40.848 32.2947 38.0294C32.2947 34.5665 33.5731 31.9089 36.13 30.0567C38.7071 28.2044 42.4216 27.2683 47.2737 27.2481H51.2902V25.3757C51.2902 23.8658 50.8976 22.6578 50.1124 21.7518C49.3474 20.8458 48.1293 20.3928 46.4583 20.3928C44.9886 20.3928 43.8309 20.7451 42.9853 21.4498C42.1599 22.1545 41.7471 23.1208 41.7471 24.349H33.0195C33.0195 22.4565 33.6033 20.7049 34.771 19.0942C35.9388 17.4836 37.5897 16.2253 39.7238 15.3193C41.8579 14.3932 44.2537 13.9301 46.9113 13.9301C50.9379 13.9301 54.129 14.9468 56.4845 16.9803C58.8602 18.9936 60.0481 21.8323 60.0481 25.4965V39.6601C60.0682 42.7606 60.5011 45.1061 61.3467 46.6966V47.21H52.5284ZM45.3107 41.1399C46.5992 41.1399 47.7871 40.8581 48.8742 40.2943C49.9614 39.7105 50.7668 38.9354 51.2902 37.969V32.3518H48.0287C43.6598 32.3518 41.3344 33.8618 41.0526 36.8818L41.0224 37.3952C41.0224 38.4824 41.4049 39.3783 42.1699 40.0829C42.935 40.7876 43.9819 41.1399 45.3107 41.1399Z" fill="black"/>
<path d="M82.0213 22.7182C80.8335 22.5571 79.7865 22.4766 78.8805 22.4766C75.5787 22.4766 73.4144 23.594 72.3876 25.8287V47.21H63.66V14.5341H71.9044L72.146 18.4298C73.8976 15.43 76.3236 13.9301 79.4241 13.9301C80.3905 13.9301 81.2965 14.061 82.1421 14.3227L82.0213 22.7182Z" fill="black"/>
<path d="M101.186 47.21C100.783 46.4249 100.491 45.4484 100.31 44.2807C98.1962 46.6362 95.448 47.814 92.0657 47.814C88.8645 47.814 86.207 46.8879 84.093 45.0357C81.9992 43.1834 80.9522 40.848 80.9522 38.0294C80.9522 34.5665 82.2307 31.9089 84.7876 30.0567C87.3646 28.2044 91.0792 27.2683 95.9312 27.2481H99.9478V25.3757C99.9478 23.8658 99.5552 22.6578 98.77 21.7518C98.0049 20.8458 96.7869 20.3928 95.1158 20.3928C93.6461 20.3928 92.4885 20.7451 91.6429 21.4498C90.8174 22.1545 90.4047 23.1208 90.4047 24.349H81.677C81.677 22.4565 82.2609 20.7049 83.4286 19.0942C84.5963 17.4836 86.2472 16.2253 88.3813 15.3193C90.5154 14.3932 92.9113 13.9301 95.5688 13.9301C99.5954 13.9301 102.787 14.9468 105.142 16.9803C107.518 18.9936 108.706 21.8323 108.706 25.4965V39.6601C108.726 42.7606 109.159 45.1061 110.004 46.6966V47.21H101.186ZM93.9683 41.1399C95.2568 41.1399 96.4446 40.8581 97.5318 40.2943C98.619 39.7105 99.4243 38.9354 99.9478 37.969V32.3518H96.6862C92.3173 32.3518 89.992 33.8618 89.7101 36.8818L89.6799 37.3952C89.6799 38.4824 90.0624 39.3783 90.8275 40.0829C91.5926 40.7876 92.6395 41.1399 93.9683 41.1399Z" fill="black"/>
<path d="M111.049 30.6305C111.049 25.6173 112.237 21.5807 114.613 18.5204C117.009 15.4602 120.23 13.9301 124.277 13.9301C127.86 13.9301 130.649 15.1582 132.642 17.6145L133.004 14.5341H140.917V46.1229C140.917 48.9818 140.262 51.4682 138.954 53.5822C137.665 55.6961 135.843 57.3068 133.487 58.4141C131.132 59.5214 128.374 60.0751 125.213 60.0751C122.817 60.0751 120.481 59.5919 118.206 58.6255C115.931 57.6792 114.21 56.4511 113.042 54.9411L116.908 49.626C119.082 52.0621 121.72 53.2802 124.82 53.2802C127.135 53.2802 128.937 52.656 130.226 51.4078C131.514 50.1797 132.159 48.4281 132.159 46.1531V44.4015C130.145 46.6765 127.498 47.814 124.216 47.814C120.29 47.814 117.109 46.2839 114.673 43.2237C112.257 40.1433 111.049 36.0664 111.049 30.9929V30.6305ZM119.777 31.2647C119.777 34.2242 120.371 36.5496 121.559 38.2408C122.746 39.9118 124.377 40.7473 126.451 40.7473C129.108 40.7473 131.011 39.7507 132.159 37.7576V24.0168C130.991 22.0236 129.108 21.027 126.511 21.027C124.417 21.027 122.767 21.8827 121.559 23.594C120.371 25.3053 119.777 27.8622 119.777 31.2647Z" fill="black"/>
<path d="M159.598 47.814C154.806 47.814 150.901 46.3443 147.881 43.4049C144.881 40.4655 143.381 36.5496 143.381 31.6573V30.8117C143.381 27.53 144.015 24.6006 145.283 22.0236C146.552 19.4264 148.344 17.4333 150.659 16.0441C152.994 14.6348 155.652 13.9301 158.632 13.9301C163.101 13.9301 166.614 15.3394 169.171 18.158C171.748 20.9767 173.037 24.9731 173.037 30.1473V33.7108H152.229C152.511 35.8449 153.357 37.5562 154.766 38.8448C156.195 40.1333 157.997 40.7775 160.172 40.7775C163.534 40.7775 166.161 39.5595 168.054 37.1234L172.342 41.9251C171.034 43.7774 169.262 45.2269 167.027 46.2739C164.792 47.3006 162.316 47.814 159.598 47.814ZM158.601 20.9968C156.87 20.9968 155.461 21.5807 154.373 22.7484C153.306 23.9161 152.622 25.5871 152.32 27.7615H164.46V27.0669C164.42 25.1341 163.896 23.6443 162.89 22.5974C161.883 21.5303 160.454 20.9968 158.601 20.9968Z" fill="black"/>
<path d="M183.383 6.62181V14.5341H189.483V18.8526H183.383V39.1166C183.383 40.4252 183.655 41.4117 184.199 42.0761C184.742 42.7204 185.668 43.0425 186.977 43.0425C187.621 43.0425 188.507 42.9217 189.634 42.6801V47.21C188.165 47.6127 186.735 47.814 185.346 47.814C182.85 47.814 180.967 47.059 179.699 45.5491C178.43 44.0391 177.796 41.8949 177.796 39.1166V18.8526H171.847V14.5341H177.796V6.62181H183.383Z" fill="black"/>
<path d="M198.531 18.4902C201.008 15.4501 204.229 13.9301 208.195 13.9301C215.101 13.9301 218.584 17.8258 218.644 25.6173V47.21H213.057V25.5871C213.037 23.2316 212.494 21.4901 211.426 20.3626C210.38 19.2352 208.739 18.6714 206.504 18.6714C204.692 18.6714 203.101 19.1546 201.732 20.121C200.363 21.0874 199.296 22.3558 198.531 23.9262V47.21H192.944V0.823486H198.531V18.4902Z" fill="black"/>
<path d="M229.987 47.21H224.4V14.5341H229.987V47.21ZM223.947 5.86682C223.947 4.96083 224.219 4.19577 224.763 3.57165C225.326 2.94752 226.152 2.63546 227.239 2.63546C228.326 2.63546 229.152 2.94752 229.715 3.57165C230.279 4.19577 230.561 4.96083 230.561 5.86682C230.561 6.7728 230.279 7.52779 229.715 8.13178C229.152 8.73578 228.326 9.03777 227.239 9.03777C226.152 9.03777 225.326 8.73578 224.763 8.13178C224.219 7.52779 223.947 6.7728 223.947 5.86682Z" fill="black"/>
<path d="M241.149 14.5341L241.33 18.6412C243.827 15.5005 247.088 13.9301 251.115 13.9301C258.02 13.9301 261.503 17.8258 261.564 25.6173V47.21H255.977V25.5871C255.957 23.2316 255.413 21.4901 254.346 20.3626C253.299 19.2352 251.658 18.6714 249.424 18.6714C247.612 18.6714 246.021 19.1546 244.652 20.121C243.283 21.0874 242.216 22.3558 241.451 23.9262V47.21H235.864V14.5341H241.149Z" fill="black"/>
<path d="M276.017 32.0801L272.514 35.7342V47.21H266.927V0.823486H272.514V28.8789L275.504 25.2851L285.681 14.5341H292.476L279.762 28.1843L293.956 47.21H287.403L276.017 32.0801Z" fill="black"/>
<path d="M301.222 47.21H295.635V14.5341H301.222V47.21ZM295.182 5.86682C295.182 4.96083 295.454 4.19577 295.997 3.57165C296.561 2.94752 297.387 2.63546 298.474 2.63546C299.561 2.63546 300.386 2.94752 300.95 3.57165C301.514 4.19577 301.796 4.96083 301.796 5.86682C301.796 6.7728 301.514 7.52779 300.95 8.13178C300.386 8.73578 299.561 9.03777 298.474 9.03777C297.387 9.03777 296.561 8.73578 295.997 8.13178C295.454 7.52779 295.182 6.7728 295.182 5.86682Z" fill="black"/>
<path d="M312.384 14.5341L312.565 18.6412C315.061 15.5005 318.323 13.9301 322.35 13.9301C329.255 13.9301 332.738 17.8258 332.799 25.6173V47.21H327.212V25.5871C327.192 23.2316 326.648 21.4901 325.581 20.3626C324.534 19.2352 322.893 18.6714 320.658 18.6714C318.846 18.6714 317.256 19.1546 315.887 20.121C314.518 21.0874 313.451 22.3558 312.686 23.9262V47.21H307.099V14.5341H312.384Z" fill="black"/>
<path d="M336.803 30.6003C336.803 25.5066 337.981 21.4599 340.336 18.46C342.692 15.4401 345.813 13.9301 349.698 13.9301C353.685 13.9301 356.795 15.3394 359.03 18.158L359.302 14.5341H364.405V46.4249C364.405 50.6528 363.147 53.9848 360.631 56.4209C358.134 58.857 354.772 60.0751 350.544 60.0751C348.188 60.0751 345.883 59.5717 343.628 58.5651C341.373 57.5584 339.652 56.1793 338.464 54.4277L341.363 51.0756C343.759 54.0351 346.688 55.5149 350.151 55.5149C352.869 55.5149 354.983 54.7499 356.493 53.2198C358.023 51.6896 358.788 49.5354 358.788 46.757V43.9485C356.554 46.5255 353.503 47.814 349.638 47.814C345.813 47.814 342.712 46.2739 340.336 43.1935C337.981 40.1131 336.803 35.9154 336.803 30.6003ZM342.42 31.2345C342.42 34.9188 343.175 37.818 344.685 39.9319C346.195 42.0258 348.309 43.0727 351.027 43.0727C354.55 43.0727 357.137 41.4721 358.788 38.271V23.3524C357.077 20.2318 354.51 18.6714 351.087 18.6714C348.37 18.6714 346.245 19.7284 344.715 21.8424C343.185 23.9564 342.42 27.0871 342.42 31.2345Z" fill="black"/>
</svg>
